<svg width="143" height="71" viewBox="0 0 143 71" fill="none" xmlns="http://www.w3.org/2000/svg">
<g clip-path="url(#clip0)">
<path d="M115.733 52.0691H113.868L116.953 56.7234L113.772 61.4819H115.646L117.824 57.9586L120.003 61.4819H121.868L118.687 56.7234L121.772 52.0691H119.889L117.798 55.5054L115.733 52.0691ZM110.496 53.8917C110.891 54.3413 111.111 54.975 111.158 55.7926V55.9144H106.435C106.539 55.0617 106.812 54.399 107.254 53.9264C107.46 53.698 107.713 53.5166 107.996 53.3943C108.278 53.272 108.584 53.2117 108.892 53.2176C109.566 53.2176 110.101 53.4423 110.496 53.8917ZM112.648 59.8377L111.663 59.0724C111.38 59.4434 111.028 59.7564 110.626 59.9943C110.184 60.2381 109.685 60.3584 109.18 60.3423C108.807 60.3523 108.436 60.2808 108.094 60.1328C107.751 59.9848 107.445 59.7638 107.197 59.4854C106.677 58.9142 106.406 58.1646 106.382 57.2366H112.77V56.5669C112.77 55.0649 112.43 53.9108 111.75 53.1045C111.071 52.2984 110.118 51.8954 108.892 51.8954C108.15 51.8931 107.424 52.1094 106.805 52.5172C106.155 52.9413 105.636 53.5378 105.306 54.2397C104.938 55.0216 104.755 55.8772 104.77 56.7409V57.0367C104.77 58.4401 105.171 59.5608 105.973 60.3989C106.775 61.237 107.814 61.6561 109.093 61.656C110.673 61.656 111.858 61.0499 112.648 59.8378L112.648 59.8377ZM96.9973 54.1745C97.4388 53.5654 98.0545 53.2609 98.8445 53.261C99.8438 53.261 100.585 53.7047 101.067 54.5921V58.9156C100.596 59.8321 99.8497 60.2903 98.8272 60.2901C98.4709 60.3034 98.1168 60.2276 97.7972 60.0696C97.4777 59.9116 97.2027 59.6764 96.9973 59.3854C96.5558 58.7822 96.335 57.947 96.335 56.8799C96.335 55.6854 96.5558 54.7836 96.9973 54.1745ZM94.7228 56.819C94.7228 58.2574 95.067 59.4231 95.7553 60.3162C96.4438 61.2096 97.3342 61.6562 98.4265 61.656C99.5766 61.656 100.474 61.2616 101.119 60.4727L101.197 61.4819H102.679V48.1196H101.067V53.0261C100.422 52.2723 99.5475 51.8954 98.4438 51.8954C97.9219 51.8831 97.4048 51.9965 96.9361 52.2259C96.4674 52.4553 96.0609 52.794 95.751 53.2133C95.0656 54.0918 94.7228 55.2532 94.7228 56.6973V56.819ZM85.2678 52.0691V61.4819H86.88V54.7748C87.0889 54.3365 87.407 53.9591 87.8037 53.6786C88.207 53.3976 88.689 53.2514 89.1806 53.261C89.8253 53.261 90.3002 53.4234 90.6052 53.7483C90.9104 54.073 91.0659 54.5746 91.0715 55.2532V61.4819H92.6837V55.2619C92.6662 53.0174 91.6611 51.8953 89.6685 51.8954C89.1238 51.8819 88.5838 51.9979 88.0928 52.2338C87.6019 52.4698 87.1743 52.8189 86.8452 53.2524L86.7928 52.0691L85.2678 52.0691ZM82.4617 48.8158H80.7886V61.4822H82.4617V48.8158Z" fill="#00A7EE"/>
<path d="M140.834 40.6714C140.466 40.9179 139.976 41.0412 139.366 41.0413C138.704 41.0413 138.171 40.8833 137.767 40.5672C137.57 40.4153 137.409 40.2212 137.297 39.9991C137.184 39.7771 137.123 39.5327 137.118 39.284H135.506C135.505 39.84 135.677 40.3824 135.998 40.8369C136.341 41.3276 136.813 41.7144 137.362 41.9546C137.993 42.2317 138.677 42.3683 139.366 42.355C140.441 42.355 141.315 42.1012 141.989 41.5936C142.311 41.3647 142.571 41.0606 142.747 40.708C142.923 40.3553 143.01 39.9649 143 39.5709C143.014 39.1163 142.888 38.6683 142.639 38.2877C142.351 37.8983 141.968 37.5885 141.527 37.3874C140.903 37.0963 140.246 36.8802 139.571 36.7438C138.766 36.5641 138.21 36.3756 137.902 36.1783C137.753 36.0864 137.632 35.9564 137.551 35.8019C137.47 35.6474 137.432 35.474 137.44 35.2997C137.436 35.1053 137.479 34.9127 137.566 34.7385C137.652 34.5643 137.78 34.4135 137.937 34.2992C138.268 34.044 138.727 33.9164 139.314 33.9163C139.829 33.8977 140.332 34.068 140.73 34.3948C140.904 34.5299 141.045 34.7027 141.142 34.9001C141.24 35.0975 141.291 35.3143 141.292 35.5344H142.913C142.921 35.129 142.836 34.7273 142.663 34.3605C142.489 33.9938 142.234 33.6721 141.915 33.4206C141.25 32.8697 140.383 32.5942 139.314 32.5941C138.297 32.5941 137.462 32.8609 136.809 33.3945C136.155 33.9282 135.828 34.5806 135.828 35.3517C135.817 35.7777 135.937 36.1967 136.173 36.5522C136.448 36.927 136.813 37.2263 137.236 37.4224C137.854 37.712 138.507 37.9224 139.179 38.0485C139.995 38.2225 140.567 38.4299 140.895 38.6706C141.055 38.7855 141.184 38.9383 141.27 39.1152C141.356 39.2921 141.397 39.4876 141.388 39.6841C141.39 39.8826 141.34 40.0782 141.243 40.2514C141.146 40.4247 141.005 40.5695 140.834 40.6714ZM130.643 30.4889V32.7681H128.927V34.012H130.643V39.8495C130.643 40.6499 130.826 41.2675 131.192 41.7025C131.558 42.1373 132.101 42.3548 132.822 42.355C133.24 42.3525 133.656 42.2944 134.059 42.182V40.8845C133.808 40.9447 133.551 40.9797 133.292 40.9891C132.915 40.9891 132.648 40.8947 132.491 40.7059C132.334 40.5173 132.255 40.2343 132.255 39.8567V34.012H134.016V32.7681H132.255V30.4889L130.643 30.4889ZM125.929 34.5907C126.324 35.04 126.545 35.6736 126.591 36.4913V36.6131H121.868C121.972 35.7607 122.245 35.0981 122.687 34.6254C122.893 34.397 123.146 34.2155 123.429 34.0931C123.712 33.9708 124.017 33.9105 124.325 33.9163C124.999 33.9163 125.534 34.1411 125.929 34.5907V34.5907ZM128.081 40.5367L127.097 39.7711C126.814 40.1422 126.461 40.4553 126.06 40.6933C125.618 40.937 125.118 41.0573 124.613 41.0413C124.24 41.0513 123.869 40.9798 123.527 40.8318C123.184 40.6838 122.878 40.4628 122.63 40.1844C122.11 39.6132 121.839 38.8636 121.816 37.9356H128.203V37.2656C128.203 35.7637 127.863 34.6095 127.184 33.8032C126.504 32.9974 125.551 32.5944 124.325 32.5941C123.584 32.5919 122.857 32.8083 122.238 33.2161C121.588 33.6401 121.069 34.2365 120.739 34.9385C120.372 35.7203 120.188 36.576 120.203 37.4396V37.7355C120.203 39.1391 120.604 40.2598 121.406 41.0977C122.208 41.936 123.248 42.3552 124.526 42.355C126.106 42.355 127.291 41.7489 128.081 40.5367V40.5367ZM117.659 42.1809H119.55L115.454 36.7001L119.123 32.7681H117.162L114.226 35.8649L113.363 36.9003V28.8186H111.751V42.1809H113.363V38.875L114.374 37.8225L117.659 42.1809ZM110.261 32.7159C110.034 32.6228 109.79 32.5812 109.546 32.5941C108.576 32.5941 107.826 33.0145 107.298 33.8554L107.271 32.7681H105.703V42.1809H107.315V35.4996C107.693 34.6009 108.41 34.1514 109.468 34.1513C109.733 34.1499 109.998 34.1702 110.261 34.2121V32.7159ZM97.8429 40.5278C97.674 40.3821 97.5407 40.1997 97.4531 39.9947C97.3655 39.7897 97.3259 39.5675 97.3374 39.3449C97.3374 38.1907 98.3251 37.6137 100.3 37.6137H101.564V39.545C101.347 39.9765 101.004 40.3316 100.579 40.5629C100.143 40.819 99.6469 40.9542 99.1412 40.9543C98.671 40.9739 98.2096 40.8224 97.8429 40.5278V40.5278ZM103.507 42.1809V42.0416C103.286 41.5314 103.176 40.8441 103.176 39.9799V35.6475C103.153 34.6965 102.833 33.9498 102.217 33.4074C101.602 32.8654 100.75 32.5943 99.6639 32.5941C99.015 32.5866 98.3719 32.7171 97.7773 32.9769C97.2432 33.2027 96.7754 33.5605 96.418 34.0166C96.103 34.4015 95.9265 34.8809 95.9169 35.3779H97.5377C97.5377 34.9662 97.7323 34.6154 98.1217 34.3253C98.5427 34.0254 99.0512 33.8724 99.5682 33.8902C100.225 33.8902 100.721 34.057 101.058 34.3905C101.395 34.724 101.564 35.172 101.564 35.7346V36.4741H99.9951C98.6414 36.4741 97.5914 36.7452 96.8449 37.2874C96.0985 37.8297 95.7253 38.5909 95.7253 39.5709C95.7163 39.949 95.7918 40.3244 95.9463 40.6698C96.1008 41.0151 96.3304 41.3218 96.6185 41.5675C97.2138 42.0926 97.9763 42.3551 98.9059 42.355C99.4101 42.3593 99.9097 42.2578 100.372 42.057C100.834 41.8562 101.249 41.5605 101.59 41.1892C101.615 41.5293 101.691 41.8636 101.816 42.1809L103.507 42.1809ZM80.667 29.5145V42.1809H82.3402V37.2484L82.1745 31.9502L86.3312 42.1809H87.6123L91.7777 31.9243L91.6209 37.2484V42.1809H93.294V29.5145H91.124L86.9762 39.8495L82.8281 29.5145H80.667Z" fill="#F9F9F9"/>
<path d="M128.551 9.51758H126.939V22.8799H128.551V9.51758ZM118.94 21.2271C118.771 21.0812 118.638 20.8988 118.55 20.6938C118.462 20.4887 118.423 20.2664 118.434 20.0438C118.434 18.89 119.422 18.3129 121.397 18.3126H122.661V20.244C122.444 20.6755 122.101 21.0306 121.676 21.2618C121.24 21.5181 120.744 21.6533 120.238 21.6533C119.768 21.673 119.306 21.5215 118.94 21.2271V21.2271ZM124.604 22.8799V22.7406C124.383 22.2303 124.273 21.5431 124.273 20.6788V16.3465C124.25 15.3955 123.93 14.6488 123.314 14.1064C122.698 13.5643 121.847 13.2932 120.761 13.293C120.112 13.2856 119.469 13.4161 118.874 13.6759C118.34 13.9017 117.872 14.2595 117.515 14.7155C117.2 15.1005 117.024 15.5799 117.014 16.0768H118.635C118.635 15.6652 118.829 15.3143 119.219 15.0243C119.64 14.7244 120.148 14.5716 120.665 14.5894C121.321 14.5894 121.818 14.7561 122.155 15.0894C122.492 15.4232 122.661 15.8713 122.661 16.4335V17.173H121.092C119.738 17.173 118.688 17.4442 117.942 17.9864C117.196 18.5287 116.822 19.29 116.822 20.2701C116.813 20.6482 116.889 21.0235 117.043 21.3688C117.198 21.7141 117.427 22.0207 117.715 22.2664C118.311 22.7915 119.073 23.054 120.003 23.0539C120.507 23.0583 121.007 22.9568 121.469 22.7559C121.931 22.5551 122.346 22.2595 122.687 21.8882C122.712 22.2283 122.788 22.5627 122.913 22.8799L124.604 22.8799ZM112.805 20.792C112.375 21.3895 111.774 21.6882 111.001 21.688C109.955 21.688 109.186 21.1951 108.692 20.2092V16.1377C109.156 15.152 109.92 14.659 110.984 14.6589C111.78 14.6589 112.39 14.9576 112.814 15.555C113.238 16.1523 113.45 16.999 113.45 18.0952C113.45 19.2957 113.235 20.1946 112.805 20.792V20.792ZM115.062 18.1386C115.062 16.6367 114.735 15.4536 114.082 14.5894C113.428 13.7252 112.529 13.293 111.384 13.293C110.24 13.293 109.342 13.6962 108.692 14.5024V9.51758H107.08V22.8799H108.561L108.639 21.7926C109.29 22.6334 110.211 23.0538 111.402 23.0539C111.92 23.0694 112.433 22.9582 112.898 22.73C113.363 22.5018 113.765 22.1635 114.069 21.7446C114.731 20.8717 115.062 19.7161 115.062 18.2779V18.1386ZM98.8274 15.5636C99.0478 15.262 99.3381 15.0183 99.6734 14.8532C100.009 14.6881 100.379 14.6065 100.753 14.6156C101.133 14.6053 101.509 14.6874 101.85 14.8549C102.191 15.0223 102.486 15.2701 102.709 15.5768C103.2 16.2177 103.446 17.0543 103.446 18.0866C103.446 19.2407 103.205 20.1382 102.723 20.779C102.493 21.077 102.198 21.3185 101.861 21.4851C101.523 21.6518 101.152 21.739 100.776 21.7403C100.399 21.7415 100.028 21.6567 99.6891 21.4923C99.3506 21.328 99.0542 21.0884 98.8228 20.792C98.3378 20.1599 98.0953 19.3219 98.0952 18.2779C98.0952 17.1006 98.3393 16.1958 98.8274 15.5636V15.5636ZM96.4744 18.1995C96.4744 19.661 96.8709 20.8354 97.664 21.7228C98.4568 22.6102 99.4924 23.0539 100.771 23.0539C101.564 23.0689 102.346 22.8576 103.023 22.4448C103.68 22.0354 104.204 21.4447 104.531 20.7443C104.892 19.9728 105.072 19.1293 105.058 18.2779V18.1647C105.058 16.6916 104.662 15.5114 103.868 14.6242C103.076 13.7368 102.037 13.293 100.753 13.293C99.9719 13.2795 99.2028 13.4877 98.5354 13.8933C97.877 14.3052 97.3508 14.897 97.019 15.5984C96.6471 16.3746 96.4607 17.2263 96.4744 18.0866L96.4744 18.1995ZM94.3219 9.51758H92.7098V22.8799H94.3219V9.51758ZM90.0346 16.5728H85.4334V17.9387H88.37V20.7769C88.0521 21.1128 87.6483 21.3559 87.2023 21.4798C86.6661 21.6273 86.1115 21.6975 85.5553 21.688C84.4456 21.688 83.5655 21.2686 82.915 20.4299C82.2643 19.5912 81.939 18.4608 81.9391 17.0386V16.0025C81.9448 14.511 82.2367 13.372 82.8148 12.5853C83.3929 11.7986 84.2425 11.4053 85.3637 11.4053C87.0485 11.4053 88.0477 12.2463 88.3614 13.9283H90.0346C89.8543 12.6872 89.3605 11.7287 88.5533 11.0529C87.7456 10.3775 86.6795 10.0397 85.3551 10.0394C83.74 10.0394 82.4865 10.5643 81.5948 11.6141C80.7029 12.664 80.2571 14.1429 80.2573 16.051V17.1555C80.2687 18.3331 80.4937 19.3683 80.9325 20.2613C81.337 21.1168 81.9838 21.8352 82.793 22.3276C83.6256 22.8201 84.5791 23.0716 85.5467 23.0539C86.4637 23.0723 87.3758 22.9174 88.2351 22.5973C88.9595 22.3275 89.5864 21.8471 90.0346 21.2182V16.5728Z" fill="#F9F9F9"/>
<path d="M46.5916 25.0346H51.5633V45.964H46.981V32.3003L41.0806 41.24H40.9608L35.1206 32.3897V45.964H30.5982V25.0346H35.57L41.0806 33.8849L46.5916 25.0346ZM55.6062 25.0346H60.2185V45.9643H55.6062V25.0346ZM7.38731 35.5593V35.4995C7.38731 29.5493 12.0293 24.6758 18.3787 24.6758C22.1525 24.6758 24.4285 25.6922 26.615 27.5466L23.7099 31.0448C22.0926 29.6986 20.655 28.9219 18.2292 28.9219C14.8748 28.9219 12.209 31.8813 12.209 35.4394V35.4995C12.209 39.3269 14.8448 42.1366 18.5584 42.1366C20.2356 42.1366 21.7331 41.7187 22.9011 40.8811V37.8915H18.2589V33.9145H27.3639V43.0038C25.2074 44.8274 22.2424 46.3229 18.4089 46.3229C11.8798 46.3229 7.38731 41.7483 7.38731 35.5593L7.38731 35.5593ZM35.4304 0C15.8503 0.069505 0 15.9368 0 35.4995C0 55.1061 15.921 71 35.5605 71C55.2003 71 71.121 55.1061 71.121 35.4995C71.121 15.9368 55.2707 0.069505 35.6906 0H35.4304Z" fill="url(#paint0_linear)"/>
</g>
<defs>
<linearGradient id="paint0_linear" x1="35.5605" y1="70.1903" x2="35.5605" y2="12.4553" gradientUnits="userSpaceOnUse">
<stop stop-color="#046DB8"/>
<stop offset="0.01014" stop-color="#046DB8"/>
<stop offset="0.50309" stop-color="#00A7EE"/>
<stop offset="1" stop-color="#53D3F8"/>
</linearGradient>
<clipPath id="clip0">
<rect width="143" height="71" fill="white"/>
</clipPath>
</defs>
</svg>
