<svg width="284" height="126" viewBox="0 0 284 126" fill="none" xmlns="http://www.w3.org/2000/svg">
<path d="M72.7324 69.7899C72.7324 73.3248 71.5879 76.0763 69.3056 78.0708C67.0233 80.0324 63.8455 81 59.7724 81C58.0624 81 56.4533 80.8223 54.9318 80.4208C53.4035 80.0126 52.0974 79.4597 51 78.7093V70.3429C52.2926 71.192 53.794 71.8832 55.4771 72.4624C57.1602 73.0285 58.6885 73.3248 60.0484 73.3248C61.1997 73.3248 62.0682 73.0812 62.6606 72.5941C63.2464 72.107 63.5426 71.3829 63.5426 70.4877C63.5426 70.073 63.4483 69.6517 63.2666 69.2765C63.0713 68.8881 62.8087 68.5129 62.4721 68.1443C62.1288 67.7559 61.2132 66.9331 59.7253 65.6693C57.9075 64.1618 56.5879 62.6281 55.7666 61.0746C54.9452 59.508 54.5345 57.7965 54.5345 55.9271C54.5345 53.8338 55.0395 51.9512 56.0561 50.2858C57.0727 48.6204 58.5067 47.3368 60.3649 46.4087C62.2163 45.4871 64.2899 45.0329 66.5924 45.0329C70.2953 45.0329 73.6278 45.8887 76.5901 47.6067L73.4393 54.7159C70.7867 53.3006 68.5313 52.6095 66.6732 52.6095C65.6835 52.6095 64.916 52.8333 64.3774 53.2809C63.8523 53.7219 63.583 54.3736 63.583 55.2293C63.583 56.0126 63.8455 56.7433 64.3639 57.4213C64.8823 58.1059 65.872 59.0077 67.3262 60.1399C69.1507 61.5288 70.5107 63.0033 71.3926 64.5239C72.2881 66.051 72.7324 67.7954 72.7324 69.7899Z" fill="#F25822"/>
<path d="M88.7826 80.5325H79.687L85.1942 53.2544H77.8221L79.4244 45.5199H103.338L101.695 53.2544H94.2965L88.7826 80.5325Z" fill="#F25822"/>
<path d="M99.2985 80.5327L106.482 45.5267H115.719L108.529 80.5327H99.2985Z" fill="#F25822"/>
<path d="M134.079 52.7872C132.396 52.7872 130.881 53.4059 129.534 54.6434C128.188 55.8875 127.131 57.6056 126.357 59.791C125.589 61.983 125.205 64.3461 125.205 66.9067C125.205 69.0527 125.636 70.6456 126.505 71.712C127.373 72.7389 128.619 73.2655 130.248 73.2655C131.521 73.2655 132.847 73.1273 134.153 72.8047C135.479 72.4558 137.028 71.8897 138.798 71.1196V78.8738C135.648 80.3154 132.227 80.9934 128.558 80.9934C124.532 80.9934 121.408 79.8086 119.247 77.4718C117.073 75.1086 115.995 71.7581 115.995 67.4136C115.995 63.1547 116.776 59.2644 118.359 55.723C119.927 52.1816 122.075 49.5222 124.775 47.7054C127.481 45.9018 130.578 45 134.072 45C138.179 45 141.909 46.0466 145.262 48.153L141.821 55.4399C140.38 54.5645 139.054 53.9194 137.842 53.4652C136.63 53.0044 135.385 52.7872 134.079 52.7872Z" fill="#F25822"/>
<path d="M170.777 56.0127C170.777 60.0346 169.457 63.2074 166.791 65.4784C164.125 67.7757 160.483 68.9079 155.865 68.9079H153.865L151.529 80.5327H142.427L149.603 45.5267H158.282C162.308 45.5267 165.398 46.4351 167.525 48.2453C169.713 50.0555 170.777 52.649 170.777 56.0127ZM155.501 61.2524H156.975C158.383 61.2524 159.527 60.7982 160.396 59.8503C161.264 58.9156 161.695 57.7439 161.695 56.2958C161.695 55.3544 161.405 54.5975 160.853 54.0182C160.301 53.4455 159.541 53.1559 158.551 53.1559H157.171L155.501 61.2524Z" fill="#F25822"/>
<path d="M189.426 73.9765H178.997L176.082 80.5327H166.657L183.946 45.5267H195.647L198.501 80.5327H189.655L189.426 73.9765ZM182.323 66.5053H189.137L188.733 56.355L188.692 54.2947C188.692 53.0966 188.719 52.05 188.793 51.1548C188.416 52.5239 187.952 53.8405 187.366 55.1306L182.323 66.5053Z" fill="#F25822"/>
<path d="M215.043 58.4941L222.301 45.5199H232.44L218.214 66.933L215.393 80.5325H206.278L209.078 66.9461L203.571 45.5331H212.949L215.043 58.4941Z" fill="#F25822"/>
</svg>
